<?xml version="1.0" encoding="UTF-8" standalone="no"?>
<svg
   viewBox="0 0 36 36.438"
   width="144"
   height="145.752"
   version="1.1"
   id="svg27"
   sodipodi:docname="icons8-app.svg"
   inkscape:export-filename="logo1024.png"
   inkscape:export-xdpi="512"
   inkscape:export-ydpi="512"
   inkscape:version="1.2.2 (b0a84865, 2022-12-01)"
   xmlns:inkscape="http://www.inkscape.org/namespaces/inkscape"
   xmlns:sodipodi="http://sodipodi.sourceforge.net/DTD/sodipodi-0.dtd"
   xmlns="http://www.w3.org/2000/svg"
   xmlns:svg="http://www.w3.org/2000/svg">
  <defs
     id="defs31" />
  <sodipodi:namedview
     id="namedview29"
     pagecolor="#ffffff"
     bordercolor="#000000"
     borderopacity="0.25"
     inkscape:showpageshadow="2"
     inkscape:pageopacity="0.0"
     inkscape:pagecheckerboard="0"
     inkscape:deskcolor="#d1d1d1"
     showgrid="false"
     inkscape:zoom="1.2291667"
     inkscape:cx="-98.440678"
     inkscape:cy="74.033898"
     inkscape:window-width="1309"
     inkscape:window-height="456"
     inkscape:window-x="0"
     inkscape:window-y="25"
     inkscape:window-maximized="0"
     inkscape:current-layer="svg27" />
  <path
     fill="#ff8c34"
     d="M 29,36.438 H 7 c -3.85,0 -7,-3.15 -7,-7 v -22 c 0,-3.85 3.15,-7 7,-7 h 22 c 3.85,0 7,3.15 7,7 v 22 c 0,3.85 -3.15,7 -7,7 z"
     id="path9" />
  <path
     fill="#ff8034"
     d="m 36,7 v 22 c 0,3.85 -3.15,7 -7,7 H 24.42 C 22.07,24.03 11.83,13.53 0,10.79 V 7 C 0,3.15 3.15,0 7,0 h 22 c 3.85,0 7,3.15 7,7 z"
     id="path11" />
  <path
     fill="#ff7534"
     d="m 36,7.438 v 22 c 0,1.95 -0.81,3.73 -2.12,5 C 32.49,17.598 19.5,4.038 2.92,1.768 4.07,0.928 5.48,0.438 7,0.438 h 22 c 3.85,0 7,3.15 7,7 z"
     id="path13" />
  <path
     fill="#ff7034"
     d="m 36,7.438 v 9.86 C 32.29,10.318 26.71,4.468 19.93,0.438 H 29 c 3.85,0 7,3.15 7,7 z"
     id="path15" />
  <circle
     cx="8.5"
     cy="27.938"
     r="2.5"
     fill="#ffffff"
     id="circle17" />
  <circle
     cx="4.5"
     cy="31.938"
     r="1.5"
     fill="#ffffff"
     id="circle19" />
  <path
     fill="#ff8c34"
     d="m 35.97,29.888 c -0.01,0.35 -0.06,0.69 -0.13,1.02 l -4.89,0.49 -0.54,4.9 c -0.33,0.06 -0.68,0.11 -1.03,0.12 l 0.55,-4.92 -9.38,0.94 -0.1,-1 z"
     id="path21" />
  <path
     fill="#ff8c34"
     d="M 36,11 V 10 H 33 V 4.08 l 2.51,0.36 C 35.36,4.05 35.17,3.69 34.95,3.34 L 33.44,3.13 34.13,2.27 C 33.92,2.02 33.67,1.78 33.4,1.58 L 32.29,2.96 27.83,2.21 30.79,0.24 C 30.32,0.11 29.83,0.03 29.32,0.02 L 26.35,2 H 22.67 L 20,0 H 18.33 L 21.56,2.42 15.25,4.7 16.59,0 H 15.55 L 14.35,4.22 11.93,0 H 10.78 L 13.73,5.16 6.22,6.83 8.27,0 H 7.23 l -2,6.67 -4.26,-3.2 C 0.79,3.76 0.64,4.06 0.51,4.38 l 4.65,3.49 5.96,6.96 0.76,-0.66 -5.46,-6.36 8.19,-1.82 c 0.01,0 0.01,-0.01 0.02,-0.01 0.01,-0.01 0.03,-0.01 0.04,-0.01 l 5.86,-2.11 -6.38,6.28 0.7,0.72 L 22.82,3 h 3.01 l -2.1,7 H 21.5 v 1 h 1.93 l -0.41,1.36 0.96,0.28 0.49,-1.64 h 2.85 l 7.27,5.95 -9.95,-2.93 -0.28,0.96 9.52,2.8 -7.36,1.73 -2.69,-2.38 -0.66,0.74 2.16,1.92 -0.94,0.22 0.22,0.98 1.63,-0.39 4.78,4.25 -8.47,-0.85 -0.1,1 9.77,0.98 3.51,4.91 c 0.13,-0.45 0.22,-0.91 0.24,-1.39 l -2.4,-3.36 2.43,0.3 V 25.43 L 33.26,25.09 36,19.62 V 16.81 L 28.9,11 Z m -3.66,13.69 -4.91,-4.37 8.05,-1.89 z M 24.77,10 26.85,3.07 32,3.92 V 10 Z"
     id="path23" />
  <circle
     cx="18"
     cy="18.438"
     r="9"
     fill="#ffffff"
     id="circle25" />
</svg>
