<?xml version="1.0" encoding="UTF-8"?>
<!DOCTYPE svg PUBLIC "-//W3C//DTD SVG 1.1//EN" "http://www.w3.org/Graphics/SVG/1.1/DTD/svg11.dtd">
<!-- Creator: CorelDRAW -->
<svg xmlns="http://www.w3.org/2000/svg" xml:space="preserve" width="6.82666in" height="6.82666in" style="shape-rendering:geometricPrecision; text-rendering:geometricPrecision; image-rendering:optimizeQuality; fill-rule:evenodd; clip-rule:evenodd"
viewBox="0 0 6.82666 6.82666"
 xmlns:xlink="http://www.w3.org/1999/xlink">
 <defs>
  <style type="text/css">
   <![CDATA[
    .fil0 {fill:#42A5F5}
    .fil1 {fill:#FFFFFE}
    .fil2 {fill:#FFFFFE;fill-rule:nonzero}
   ]]>
  </style>
 </defs>
 <g id="Layer_x0020_1">
  <metadata id="CorelCorpID_0Corel-Layer"/>
  <rect class="fil0" width="6.82666" height="6.82666" rx="0.853335" ry="0.853335"/>
  <g id="_470059224">
   <path id="_470059536" class="fil1" d="M3.39194 1.02422c0.180248,0 0.343437,0.0730669 0.461567,0.191189 0.118122,0.11813 0.191189,0.281319 0.191189,0.461571 0,0.180248 -0.0730669,0.343441 -0.191189,0.461571 -0.11813,0.118122 -0.281319,0.191189 -0.461567,0.191189 -0.180256,0 -0.343445,-0.0730669 -0.461575,-0.191189 -0.118122,-0.11813 -0.191189,-0.281323 -0.191189,-0.461571 0,-0.180252 0.0730669,-0.343441 0.191189,-0.461571 0.11813,-0.118122 0.281319,-0.191189 0.461575,-0.191189zm0.183102 0.542075c-0.0339567,0.0114567 -0.070748,-0.00698819 -0.0822087,-0.0410551 -0.00840551,-0.024937 -0.0397992,-0.0541063 -0.10089,-0.0541063 -0.0474488,0 -0.0755079,0.030748 -0.0785591,0.0612087 -0.00393701,0.0377795 0.0304646,0.0680787 0.091878,0.0809528 0.147075,0.0307402 0.203736,0.133594 0.19452,0.221646 -0.00825197,0.0800984 -0.0658425,0.144362 -0.14278,0.167831l0 0.0396772c0,0.0358622 -0.0291929,0.0650748 -0.0650591,0.0650748 -0.0358661,0 -0.0649016,-0.0292126 -0.0649016,-0.0650748l0 -0.0376024c-0.0891654,-0.020626 -0.141189,-0.0810748 -0.159142,-0.135024 -0.0114213,-0.0339488 0.00697244,-0.0709055 0.0409409,-0.0821535 0.0341142,-0.0114606 0.0709173,0.00694094 0.0823701,0.0408937 0.00885039,0.0269646 0.043622,0.0540984 0.100732,0.0540984 0.0474331,0 0.0755,-0.030622 0.0785512,-0.0610906 0.00394094,-0.0378858 -0.0304606,-0.0681929 -0.091874,-0.081063 -0.147075,-0.0307559 -0.203748,-0.133429 -0.19452,-0.221484 0.00824016,-0.0801024 0.0658465,-0.144358 0.142768,-0.167996l0 -0.039689c0,-0.0358622 0.0292087,-0.0648976 0.0650748,-0.0648976 0.0358661,0 0.0650591,0.0290354 0.0650591,0.0648976l0 0.0377756c0.0889961,0.0205984 0.141031,0.0810827 0.15898,0.13485 0.0114094,0.034122 -0.00698425,0.0709252 -0.0409409,0.0823307z"/>
   <path id="_470059032" class="fil2" d="M4.99096 3.45046c-0.0565709,-0.0230118 -0.121087,0.00419685 -0.144098,0.0607638 -0.0230079,0.0565709 0.00419685,0.121087 0.0607638,0.144094 0.281421,0.114929 0.429776,-0.0690394 0.589244,-0.266815 0.104043,-0.129039 0.214685,-0.266256 0.365354,-0.266256 0.0613622,0 0.11111,-0.049748 0.11111,-0.11111 0,-0.0613622 -0.049748,-0.111114 -0.11111,-0.111114 -0.256209,0 -0.401484,0.180165 -0.538094,0.349598 -0.10587,0.131303 -0.204366,0.253441 -0.333169,0.200839z"/>
   <path id="_470059704" class="fil1" d="M0.853563 3.75816l0 0zm1.13118 -0.252516c-0.0680709,0 -0.123106,-0.0550906 -0.123106,-0.123106 0,-0.0680906 0.0550354,-0.12313 0.123106,-0.12313 0.0680394,0 0.123126,0.0550394 0.123126,0.12313 0,0.0680157 -0.0553504,0.123106 -0.123126,0.123106zm0.846528 -0.592575c-0.0613622,0 -0.11111,0.049748 -0.11111,0.11111 0,0.0613622 0.049748,0.111114 0.11111,0.111114l0.99998 0c0.0613622,0 0.11111,-0.049752 0.11111,-0.111114 0,-0.0613622 -0.049748,-0.11111 -0.11111,-0.11111l-0.99998 0zm-0.059622 -0.332622c0.0712165,-0.00923228 0.147028,-0.016685 0.228122,-0.0219882 0.0768425,-0.00502362 0.158772,-0.00773622 0.246476,-0.00773622 0.462681,0 1.00511,0.153465 1.39902,0.450524 0.31224,0.235472 0.528913,0.562303 0.528913,0.97424 0,0.170543 -0.0407283,0.333787 -0.115118,0.484555 -0.0788071,0.159728 -0.195224,0.306319 -0.341102,0.43378l-0.0393622 0.0727126c-0.0200472,0.144732 -0.0461575,0.286055 -0.0792874,0.423402 -0.032937,0.136555 -0.0734016,0.271228 -0.122409,0.403752l0.000240157 8.66142e-005c-0.000952756,0.00214567 -0.00273228,0.0041063 -0.00501181,0.00566929 -0.00278346,0.00190551 -0.00633858,0.00299213 -0.0102165,0.00299213l-0.563724 0c-0.00287795,0 -0.00446457,-7.08661e-005 -0.00487795,-0.00019685 -0.00280315,-0.000850394 -0.00553543,-0.00305512 -0.00780709,-0.00609449 -0.00183858,-0.00246457 -0.00291339,-0.00538583 -0.00291339,-0.00833071 0,-0.00230709 6.69291e-005,-0.00377165 0.00019685,-0.00420472l0.000464567 -0.000929134c0.0172717,-0.0581339 0.0315984,-0.108429 0.0435236,-0.15239 0.0124567,-0.0459213 0.0256535,-0.0969213 0.0393819,-0.151646l0.0471575 -0.188008 -0.188866 0.0439803c-0.0924882,0.0215315 -0.187465,0.0379882 -0.284366,0.0489488 -0.0946575,0.0107087 -0.192748,0.016248 -0.293839,0.016248 -0.0887008,0 -0.173299,-0.0040315 -0.253661,-0.0118661 -0.0815118,-0.00794094 -0.163976,-0.0203268 -0.246976,-0.036878l-0.110228 -0.0219843 -0.0277756 0.109047c-0.0165157,0.0648386 -0.0335433,0.125799 -0.0510551,0.182402 -0.0174331,0.0563307 -0.0370236,0.114063 -0.0588661,0.173154 -0.000866142,0.00235039 -0.00250787,0.00434646 -0.00457874,0.00576772 -0.00277165,0.00189764 -0.00638583,0.00298031 -0.0104134,0.00298031l-0.563461 0c-0.00211024,0 -0.00372835,-0.000185039 -0.00485433,-0.000519685 -0.00341732,-0.00102756 -0.00629921,-0.00309055 -0.0082874,-0.00574409 -0.00167323,-0.00223622 -0.00265354,-0.0052874 -0.00265354,-0.00875984 0,-0.00162992 0.000169291,-0.00307874 0.000523622,-0.00426772 0.029689,-0.0991339 0.0570354,-0.199559 0.0822087,-0.301102 0.0239646,-0.0966457 0.0460827,-0.196071 0.0665197,-0.297925l0.0160433 -0.0799409 -0.0688346 -0.0432441c-0.109417,-0.068748 -0.20828,-0.146378 -0.294622,-0.231323 -0.0848661,-0.0834961 -0.157642,-0.174146 -0.216441,-0.270413l-0.0321181 -0.0525906 -0.0614291 -0.00390945c-0.0519173,-0.00329921 -0.0980512,-0.00779921 -0.135917,-0.0137677 -0.0347717,-0.00547638 -0.0633346,-0.0120551 -0.0837441,-0.0199291l-0.00046063 0c-0.113724,-0.0437047 -0.188118,-0.156567 -0.236787,-0.285307 -0.0540315,-0.142909 -0.0760197,-0.304815 -0.084811,-0.425531l0 -0.0115748 -0.000232283 0c0.00135039,-0.014122 0.00765748,-0.0270551 0.0172874,-0.0369646 0.0104646,-0.0107795 0.0249331,-0.0178819 0.0413268,-0.0190039 0.0752008,-0.00506693 0.146839,-0.0164016 0.215563,-0.0333858 0.0684921,-0.0169331 0.133787,-0.0394961 0.196567,-0.0670787l0.0481181 -0.0211417 0.0167165 -0.0501772c0.0448307,-0.134539 0.112354,-0.260154 0.203913,-0.373488 0.0882165,-0.109193 0.198843,-0.206752 0.333094,-0.289654l0.11726 -0.0724016 -0.0894724 -0.104965c-0.070311,-0.0824803 -0.133035,-0.18152 -0.180689,-0.282492 -0.0238071,-0.050437 -0.0436378,-0.100882 -0.0585118,-0.149417 0.14274,0.00463386 0.283724,0.0299213 0.415524,0.0668425 0.229,0.0641496 0.4285,0.162409 0.562425,0.249126l0.0791929 0.018063z"/>
  </g>
 </g>
</svg>
